<svg width="25" height="24" viewBox="0 0 25 24" fill="none" xmlns="http://www.w3.org/2000/svg">
<path d="M16.8335 4.5C19.0395 4.5 20.8335 6.294 20.8335 8.5C20.8335 13.169 15.2905 17.441 12.3335 19.523C9.3765 17.441 3.8335 13.169 3.8335 8.5C3.8335 6.294 5.6275 4.5 7.8335 4.5C8.4758 4.50145 9.10836 4.65716 9.67794 4.95405C10.2475 5.25093 10.7375 5.68029 11.1065 6.206L12.3335 7.953L13.5605 6.207C13.9294 5.68111 14.4193 5.25155 14.9889 4.95449C15.5585 4.65743 16.1911 4.50156 16.8335 4.5ZM16.8335 3C15.9502 2.99987 15.0799 3.21288 14.2965 3.62095C13.5131 4.02902 12.8397 4.6201 12.3335 5.344C11.8273 4.6201 11.1539 4.02902 10.3705 3.62095C9.58712 3.21288 8.71681 2.99987 7.8335 3C6.37481 3 4.97586 3.57946 3.94441 4.61091C2.91296 5.64236 2.3335 7.04131 2.3335 8.5C2.3335 14.219 8.8335 18.938 12.3335 21.35C15.8335 18.938 22.3335 14.219 22.3335 8.5C22.3335 7.77773 22.1912 7.06253 21.9148 6.39524C21.6384 5.72795 21.2333 5.12163 20.7226 4.61091C20.2119 4.10019 19.6055 3.69506 18.9383 3.41866C18.271 3.14226 17.5558 3 16.8335 3Z" fill="#5C5C5C"/>
</svg>
